<svg xmlns="http://www.w3.org/2000/svg" width="44" height="44" viewBox="0 0 44 44"><path fill="#663399" d="M25.927979,12.675003L25.927979,16.815002 30.206055,16.815002 30.206055,12.675003z M1.7960205,12.675003L1.7960205,16.815002 6.0690918,16.815002 6.0720215,16.815002 6.0720215,12.675003z M25.927979,7.1330012L25.927979,11.275 30.206055,11.275 30.206055,7.1330012z M1.7960205,7.1330012L1.7960205,11.275 6.0690918,11.275 6.0720215,11.275 6.0720215,7.1330012z M12.734985,4.7179998L15.998047,6.6009997 19.25708,8.4850024 12.734985,12.251002z M25.927979,1.5950017L25.927979,5.7350024 30.206055,5.7350024 30.206055,1.5950017z M1.7960205,1.5950017L1.7960205,5.7350024 6.0690918,5.7350024 6.0720215,5.7350024 6.0720215,1.5950017z M7.8310547,1.5939984L7.8310547,16.976005 23.841064,16.976005 23.843018,16.976005 23.843018,1.5939984z M0,0L32,0 32,18.458 0,18.458z"/></svg>